<svg xmlns="http://www.w3.org/2000/svg"
     style="position:absolute;width:0;height:0;overflow:hidden"
     aria-hidden="true"
     focusable="false">

  <defs>

    <!-- ── Alcyone (Emerald step-cut, Pure Gold) ── -->
    <radialGradient id="ga-alcyone-grad" cx="38%" cy="28%" r="68%">
      <stop offset="0%"   stop-color="#FFFFF5"/>
      <stop offset="40%"  stop-color="#FFD700"/>
      <stop offset="100%" stop-color="#A87800"/>
    </radialGradient>
    <filter id="ga-alcyone-glow" x="-30%" y="-30%" width="160%" height="160%">
      <feGaussianBlur stdDeviation="2.5" result="blur"/>
      <feMerge><feMergeNode in="blur"/><feMergeNode in="SourceGraphic"/></feMerge>
    </filter>

    <!-- ── Celaeno (Halo/cabochon, Moonstone Silver) ── -->
    <radialGradient id="ga-celaeno-grad" cx="38%" cy="28%" r="68%">
      <stop offset="0%"   stop-color="#F8F8FC"/>
      <stop offset="45%"  stop-color="#8090A8"/>
      <stop offset="100%" stop-color="#303444"/>
    </radialGradient>
    <radialGradient id="ga-celaeno-inner" cx="38%" cy="28%" r="70%">
      <stop offset="0%"   stop-color="#FFFFFF"/>
      <stop offset="55%"  stop-color="#C8CCD8"/>
      <stop offset="100%" stop-color="#7880A0"/>
    </radialGradient>
    <filter id="ga-celaeno-glow" x="-30%" y="-30%" width="160%" height="160%">
      <feGaussianBlur stdDeviation="2.5" result="blur"/>
      <feMerge><feMergeNode in="blur"/><feMergeNode in="SourceGraphic"/></feMerge>
    </filter>

    <!-- ── Electra (Brilliant-cut octagon, Ice Blue/Sapphire) ── -->
    <radialGradient id="ga-electra-grad" cx="38%" cy="28%" r="68%">
      <stop offset="0%"   stop-color="#F2F9FF"/>
      <stop offset="45%"  stop-color="#5EB4FF"/>
      <stop offset="100%" stop-color="#0855C8"/>
    </radialGradient>
    <filter id="ga-electra-glow" x="-30%" y="-30%" width="160%" height="160%">
      <feGaussianBlur stdDeviation="2.5" result="blur"/>
      <feMerge><feMergeNode in="blur"/><feMergeNode in="SourceGraphic"/></feMerge>
    </filter>

    <!-- ── Maia (Round brilliant, Electric Violet) ── -->
    <radialGradient id="ga-maia-grad" cx="38%" cy="28%" r="68%">
      <stop offset="0%"   stop-color="#F0ECFF"/>
      <stop offset="45%"  stop-color="#8A38FF"/>
      <stop offset="100%" stop-color="#3800D0"/>
    </radialGradient>
    <filter id="ga-maia-glow" x="-30%" y="-30%" width="160%" height="160%">
      <feGaussianBlur stdDeviation="2.5" result="blur"/>
      <feMerge><feMergeNode in="blur"/><feMergeNode in="SourceGraphic"/></feMerge>
    </filter>

    <!-- ── Merope (Heart cut, Vivid Ruby) ── -->
    <radialGradient id="ga-merope-grad" cx="38%" cy="28%" r="68%">
      <stop offset="0%"   stop-color="#FFE8E0"/>
      <stop offset="40%"  stop-color="#E83820"/>
      <stop offset="100%" stop-color="#6C0010"/>
    </radialGradient>
    <filter id="ga-merope-glow" x="-30%" y="-30%" width="160%" height="160%">
      <feGaussianBlur stdDeviation="2.5" result="blur"/>
      <feMerge><feMergeNode in="blur"/><feMergeNode in="SourceGraphic"/></feMerge>
    </filter>

    <!-- ── Sterope (Princess/square cut, Warm Gold) ── -->
    <radialGradient id="ga-sterope-grad" cx="38%" cy="28%" r="68%">
      <stop offset="0%"   stop-color="#FFFDF0"/>
      <stop offset="40%"  stop-color="#FFD700"/>
      <stop offset="100%" stop-color="#8C5800"/>
    </radialGradient>
    <filter id="ga-sterope-glow" x="-30%" y="-30%" width="160%" height="160%">
      <feGaussianBlur stdDeviation="2.5" result="blur"/>
      <feMerge><feMergeNode in="blur"/><feMergeNode in="SourceGraphic"/></feMerge>
    </filter>

    <!-- ── Taygete (Marquise cut, Electric Navy) ── -->
    <radialGradient id="ga-taygete-grad" cx="38%" cy="28%" r="68%">
      <stop offset="0%"   stop-color="#D0E8FF"/>
      <stop offset="45%"  stop-color="#1060FF"/>
      <stop offset="100%" stop-color="#000EA0"/>
    </radialGradient>
    <filter id="ga-taygete-glow" x="-30%" y="-30%" width="160%" height="160%">
      <feGaussianBlur stdDeviation="2.5" result="blur"/>
      <feMerge><feMergeNode in="blur"/><feMergeNode in="SourceGraphic"/></feMerge>
    </filter>

  </defs>

  <!-- ═══════════════════════════════════════════════════════ -->
  <!-- Alcyone — F-type — Pure Gold — Virtue: Serenity        -->
  <!-- Gem: Emerald/step cut (elongated octagon)              -->
  <!-- ═══════════════════════════════════════════════════════ -->
  <symbol id="gem-alcyone" viewBox="0 0 50 50">
    <polygon points="16,3 34,3 45,11 47,25 45,39 34,47 16,47 5,39 3,25 5,11"
             fill="url(#ga-alcyone-grad)" stroke="#906000" stroke-width="1.5" filter="url(#ga-alcyone-glow)"/>
    <polygon points="19,9 31,9 39,15 41,25 39,35 31,41 19,41 11,35 9,25 11,15"
             fill="none" stroke="#FFFFFF" stroke-width="0.9" opacity="0.60"/>
    <polygon points="20,14 30,14 36,20 37,25 36,30 30,36 20,36 14,30 13,25 14,20"
             fill="#FFFBE0" opacity="0.55"/>
    <line x1="16" y1="3"  x2="19" y2="9"  stroke="#FFFFFF" stroke-width="0.8" opacity="0.65"/>
    <line x1="34" y1="3"  x2="31" y2="9"  stroke="#FFFFFF" stroke-width="0.8" opacity="0.65"/>
    <line x1="45" y1="11" x2="39" y2="15" stroke="#FFFFFF" stroke-width="0.8" opacity="0.65"/>
    <line x1="47" y1="25" x2="41" y2="25" stroke="#FFFFFF" stroke-width="0.8" opacity="0.65"/>
    <line x1="45" y1="39" x2="39" y2="35" stroke="#FFFFFF" stroke-width="0.8" opacity="0.65"/>
    <line x1="34" y1="47" x2="31" y2="41" stroke="#FFFFFF" stroke-width="0.8" opacity="0.65"/>
    <line x1="16" y1="47" x2="19" y2="41" stroke="#FFFFFF" stroke-width="0.8" opacity="0.65"/>
    <line x1="5"  y1="39" x2="11" y2="35" stroke="#FFFFFF" stroke-width="0.8" opacity="0.65"/>
    <line x1="3"  y1="25" x2="9"  y2="25" stroke="#FFFFFF" stroke-width="0.8" opacity="0.65"/>
    <line x1="5"  y1="11" x2="11" y2="15" stroke="#FFFFFF" stroke-width="0.8" opacity="0.65"/>
    <ellipse cx="16" cy="12" rx="4.5" ry="2.8" fill="#FFFFFF" opacity="0.45"/>
  </symbol>

  <!-- ═══════════════════════════════════════════════════════ -->
  <!-- Celaeno — Neutral — Moonstone Silver — Virtue: Sustenance -->
  <!-- Gem: Halo/cabochon double ring                         -->
  <!-- ═══════════════════════════════════════════════════════ -->
  <symbol id="gem-celaeno" viewBox="0 0 50 50">
    <circle cx="25" cy="25" r="22"
            fill="url(#ga-celaeno-grad)" stroke="#282C3C" stroke-width="1.5" filter="url(#ga-celaeno-glow)"/>
    <circle cx="25" cy="25" r="16" fill="#1C2030" opacity="0.70"/>
    <line x1="25" y1="9"  x2="25" y2="12" stroke="#8090A8" stroke-width="1.2" opacity="0.70"/>
    <line x1="25" y1="38" x2="25" y2="41" stroke="#8090A8" stroke-width="1.2" opacity="0.70"/>
    <line x1="9"  y1="25" x2="12" y2="25" stroke="#8090A8" stroke-width="1.2" opacity="0.70"/>
    <line x1="38" y1="25" x2="41" y2="25" stroke="#8090A8" stroke-width="1.2" opacity="0.70"/>
    <line x1="14.4" y1="14.4" x2="16.5" y2="16.5" stroke="#8090A8" stroke-width="1.0" opacity="0.60"/>
    <line x1="35.6" y1="14.4" x2="33.5" y2="16.5" stroke="#8090A8" stroke-width="1.0" opacity="0.60"/>
    <line x1="35.6" y1="35.6" x2="33.5" y2="33.5" stroke="#8090A8" stroke-width="1.0" opacity="0.60"/>
    <line x1="14.4" y1="35.6" x2="16.5" y2="33.5" stroke="#8090A8" stroke-width="1.0" opacity="0.60"/>
    <circle cx="25" cy="25" r="10"
            fill="url(#ga-celaeno-inner)" stroke="#4C5470" stroke-width="1.0"/>
    <ellipse cx="21" cy="20" rx="3.5" ry="2.2" fill="#FFFFFF" opacity="0.50"/>
  </symbol>

  <!-- ═══════════════════════════════════════════════════════ -->
  <!-- Electra — A-type — Ice Blue/Sapphire — Virtue: Vision  -->
  <!-- Gem: Brilliant-cut octagon                             -->
  <!-- ═══════════════════════════════════════════════════════ -->
  <symbol id="gem-electra" viewBox="0 0 50 50">
    <polygon points="47,25 41,10 25,3 9,10 3,25 9,40 25,47 41,40"
             fill="url(#ga-electra-grad)" stroke="#0440A8" stroke-width="1.5" filter="url(#ga-electra-glow)"/>
    <polygon points="38,25 34,15 25,12 16,15 12,25 16,35 25,38 34,35"
             fill="#D8EEFF" opacity="0.55"/>
    <line x1="47" y1="25" x2="38" y2="25" stroke="#FFFFFF" stroke-width="0.8" opacity="0.65"/>
    <line x1="41" y1="10" x2="34" y2="15" stroke="#FFFFFF" stroke-width="0.8" opacity="0.65"/>
    <line x1="25" y1="3"  x2="25" y2="12" stroke="#FFFFFF" stroke-width="0.8" opacity="0.65"/>
    <line x1="9"  y1="10" x2="16" y2="15" stroke="#FFFFFF" stroke-width="0.8" opacity="0.65"/>
    <line x1="3"  y1="25" x2="12" y2="25" stroke="#FFFFFF" stroke-width="0.8" opacity="0.65"/>
    <line x1="9"  y1="40" x2="16" y2="35" stroke="#FFFFFF" stroke-width="0.8" opacity="0.65"/>
    <line x1="25" y1="47" x2="25" y2="38" stroke="#FFFFFF" stroke-width="0.8" opacity="0.65"/>
    <line x1="41" y1="40" x2="34" y2="35" stroke="#FFFFFF" stroke-width="0.8" opacity="0.65"/>
    <ellipse cx="17" cy="13" rx="4.5" ry="3" fill="#FFFFFF" opacity="0.45"/>
  </symbol>

  <!-- ═══════════════════════════════════════════════════════ -->
  <!-- Maia — O-type — Electric Violet — Virtue: Autonomy     -->
  <!-- Gem: Round brilliant with radiating facets             -->
  <!-- ═══════════════════════════════════════════════════════ -->
  <symbol id="gem-maia" viewBox="0 0 50 50">
    <circle cx="25" cy="25" r="22"
            fill="url(#ga-maia-grad)" stroke="#2800B0" stroke-width="1.5" filter="url(#ga-maia-glow)"/>
    <polygon points="25,13 32,17 36,25 32,33 25,37 18,33 14,25 18,17"
             fill="#E8E0FF" opacity="0.55"/>
    <line x1="25"   y1="3"    x2="25"   y2="13"  stroke="#FFFFFF" stroke-width="0.8" opacity="0.65"/>
    <line x1="40.6" y1="9.4"  x2="32"   y2="17"  stroke="#FFFFFF" stroke-width="0.8" opacity="0.65"/>
    <line x1="47"   y1="25"   x2="36"   y2="25"  stroke="#FFFFFF" stroke-width="0.8" opacity="0.65"/>
    <line x1="40.6" y1="40.6" x2="32"   y2="33"  stroke="#FFFFFF" stroke-width="0.8" opacity="0.65"/>
    <line x1="25"   y1="47"   x2="25"   y2="37"  stroke="#FFFFFF" stroke-width="0.8" opacity="0.65"/>
    <line x1="9.4"  y1="40.6" x2="18"   y2="33"  stroke="#FFFFFF" stroke-width="0.8" opacity="0.65"/>
    <line x1="3"    y1="25"   x2="14"   y2="25"  stroke="#FFFFFF" stroke-width="0.8" opacity="0.65"/>
    <line x1="9.4"  y1="9.4"  x2="18"   y2="17"  stroke="#FFFFFF" stroke-width="0.8" opacity="0.65"/>
    <ellipse cx="17" cy="13" rx="4.5" ry="3" fill="#FFFFFF" opacity="0.45"/>
  </symbol>

  <!-- ═══════════════════════════════════════════════════════ -->
  <!-- Merope — M-type — Vivid Ruby — Virtue: Humility        -->
  <!-- Gem: Heart cut                                         -->
  <!-- ═══════════════════════════════════════════════════════ -->
  <symbol id="gem-merope" viewBox="0 0 50 50">
    <path d="M 25,42 C 7,31 4,14 14,10 C 18,8 22,11 25,16 C 28,11 32,8 36,10 C 46,14 43,31 25,42 Z"
          fill="url(#ga-merope-grad)" stroke="#500010" stroke-width="1.5" filter="url(#ga-merope-glow)"/>
    <path d="M 25,36 C 12,27 11,17 18,14 C 21,13 24,16 25,19 C 26,16 29,13 32,14 C 39,17 38,27 25,36 Z"
          fill="#FFE0D8" opacity="0.50"/>
    <line x1="25" y1="10" x2="25" y2="19" stroke="#FFFFFF" stroke-width="0.9" opacity="0.70"/>
    <line x1="14" y1="10" x2="18" y2="14" stroke="#FFFFFF" stroke-width="0.8" opacity="0.60"/>
    <line x1="4"  y1="20" x2="11" y2="17" stroke="#FFFFFF" stroke-width="0.8" opacity="0.60"/>
    <line x1="5"  y1="33" x2="12" y2="27" stroke="#FFFFFF" stroke-width="0.8" opacity="0.60"/>
    <line x1="36" y1="10" x2="32" y2="14" stroke="#FFFFFF" stroke-width="0.8" opacity="0.60"/>
    <line x1="46" y1="20" x2="39" y2="17" stroke="#FFFFFF" stroke-width="0.8" opacity="0.60"/>
    <line x1="45" y1="33" x2="38" y2="27" stroke="#FFFFFF" stroke-width="0.8" opacity="0.60"/>
    <ellipse cx="18" cy="14" rx="3.5" ry="2.2" fill="#FFFFFF" opacity="0.45"/>
  </symbol>

  <!-- ═══════════════════════════════════════════════════════ -->
  <!-- Sterope — G-type — Warm Gold — Virtue: Patience        -->
  <!-- Gem: Princess/square cut                               -->
  <!-- ═══════════════════════════════════════════════════════ -->
  <symbol id="gem-sterope" viewBox="0 0 50 50">
    <polygon points="14,3 36,3 47,14 47,36 36,47 14,47 3,36 3,14"
             fill="url(#ga-sterope-grad)" stroke="#6A4000" stroke-width="1.5" filter="url(#ga-sterope-glow)"/>
    <polygon points="18,10 32,10 40,18 40,32 32,40 18,40 10,32 10,18"
             fill="none" stroke="#FFFFFF" stroke-width="0.9" opacity="0.60"/>
    <polygon points="20,17 30,17 33,25 30,33 20,33 17,25"
             fill="#FFFBE0" opacity="0.55"/>
    <line x1="14" y1="3"  x2="18" y2="10" stroke="#FFFFFF" stroke-width="0.8" opacity="0.65"/>
    <line x1="36" y1="3"  x2="32" y2="10" stroke="#FFFFFF" stroke-width="0.8" opacity="0.65"/>
    <line x1="47" y1="14" x2="40" y2="18" stroke="#FFFFFF" stroke-width="0.8" opacity="0.65"/>
    <line x1="47" y1="36" x2="40" y2="32" stroke="#FFFFFF" stroke-width="0.8" opacity="0.65"/>
    <line x1="36" y1="47" x2="32" y2="40" stroke="#FFFFFF" stroke-width="0.8" opacity="0.65"/>
    <line x1="14" y1="47" x2="18" y2="40" stroke="#FFFFFF" stroke-width="0.8" opacity="0.65"/>
    <line x1="3"  y1="36" x2="10" y2="32" stroke="#FFFFFF" stroke-width="0.8" opacity="0.65"/>
    <line x1="3"  y1="14" x2="10" y2="18" stroke="#FFFFFF" stroke-width="0.8" opacity="0.65"/>
    <line x1="25" y1="10" x2="25" y2="17" stroke="#FFFFFF" stroke-width="0.7" opacity="0.55"/>
    <line x1="40" y1="25" x2="33" y2="25" stroke="#FFFFFF" stroke-width="0.7" opacity="0.55"/>
    <line x1="25" y1="40" x2="25" y2="33" stroke="#FFFFFF" stroke-width="0.7" opacity="0.55"/>
    <line x1="10" y1="25" x2="17" y2="25" stroke="#FFFFFF" stroke-width="0.7" opacity="0.55"/>
    <ellipse cx="17" cy="13" rx="4.5" ry="2.8" fill="#FFFFFF" opacity="0.45"/>
  </symbol>

  <!-- ═══════════════════════════════════════════════════════ -->
  <!-- Taygete — B-type — Electric Navy — Virtue: Courage     -->
  <!-- Gem: Marquise cut (pointed oval)                       -->
  <!-- ═══════════════════════════════════════════════════════ -->
  <symbol id="gem-taygete" viewBox="0 0 50 50">
    <polygon points="25,3 37,9 46,17 48,25 46,33 37,41 25,47 13,41 4,33 2,25 4,17 13,9"
             fill="url(#ga-taygete-grad)" stroke="#000C88" stroke-width="1.5" filter="url(#ga-taygete-glow)"/>
    <polygon points="25,10 33,14 39,20 41,25 39,30 33,36 25,40 17,36 11,30 9,25 11,20 17,14"
             fill="#C0D8FF" opacity="0.55"/>
    <line x1="25" y1="3"  x2="25" y2="10" stroke="#FFFFFF" stroke-width="0.8" opacity="0.65"/>
    <line x1="25" y1="47" x2="25" y2="40" stroke="#FFFFFF" stroke-width="0.8" opacity="0.65"/>
    <line x1="48" y1="25" x2="41" y2="25" stroke="#FFFFFF" stroke-width="0.8" opacity="0.65"/>
    <line x1="2"  y1="25" x2="9"  y2="25" stroke="#FFFFFF" stroke-width="0.8" opacity="0.65"/>
    <line x1="37" y1="9"  x2="33" y2="14" stroke="#FFFFFF" stroke-width="0.7" opacity="0.55"/>
    <line x1="46" y1="17" x2="39" y2="20" stroke="#FFFFFF" stroke-width="0.7" opacity="0.55"/>
    <line x1="46" y1="33" x2="39" y2="30" stroke="#FFFFFF" stroke-width="0.7" opacity="0.55"/>
    <line x1="37" y1="41" x2="33" y2="36" stroke="#FFFFFF" stroke-width="0.7" opacity="0.55"/>
    <line x1="13" y1="9"  x2="17" y2="14" stroke="#FFFFFF" stroke-width="0.7" opacity="0.55"/>
    <line x1="4"  y1="17" x2="11" y2="20" stroke="#FFFFFF" stroke-width="0.7" opacity="0.55"/>
    <line x1="4"  y1="33" x2="11" y2="30" stroke="#FFFFFF" stroke-width="0.7" opacity="0.55"/>
    <line x1="13" y1="41" x2="17" y2="36" stroke="#FFFFFF" stroke-width="0.7" opacity="0.55"/>
    <ellipse cx="17" cy="14" rx="4" ry="2.5" fill="#FFFFFF" opacity="0.45"/>
  </symbol>

</svg>
